<?xml version="1.0" encoding="utf-8"?>
<!-- Generator: Adobe Illustrator 24.3.0, SVG Export Plug-In . SVG Version: 6.00 Build 0)  -->
<svg version="1.1" id="Layer_1" xmlns="http://www.w3.org/2000/svg" xmlns:xlink="http://www.w3.org/1999/xlink" x="0px" y="0px"
	 width="1111.4px" height="325.5px" viewBox="0 0 1111.4 325.5" style="enable-background:new 0 0 1111.4 325.5;"
	 xml:space="preserve">
<style type="text/css">
	.st0{fill:#E60000;}
	.st1{fill:#303030;}
</style>
<g>
	<g>
		<path class="st0" d="M469.6,278.8c1.6-4.2,2.6-9.4,2.6-15.3h10.3c0,8.9-1.9,16.7-5.6,22.8c1.6,1.6,3.3,2.6,4.9,3.3
			c1.6,0.7,3.5,0.9,5.6,0.9h2.6v9.4h-2.1c-2.1,0-4,0-5.4-0.2c-1.6-0.2-3.1-0.5-4.5-0.9c-1.4-0.5-2.6-1.2-3.8-1.9
			c-1.2-0.7-2.4-1.9-3.8-3.1c-5.9,4.9-13.4,7.3-22.6,7.3c-8.2,0-14.3-1.9-19-5.6c-4.7-3.8-6.8-8.9-6.8-15.8c0-4.7,1.2-8.9,3.8-12.2
			c2.6-3.3,6.6-6.6,12-9.4c-2.6-2.8-4.2-5.6-5.4-8.2s-1.6-5.2-1.6-7.8c0-4.9,1.6-8.9,5.2-12c3.3-3.1,8-4.7,13.4-4.7
			s10.1,1.4,13.4,4.5s5.2,7.1,5.2,12c0,3.8-1.2,7.1-3.3,9.9c-2.4,2.8-5.9,5.9-11.1,8.7L469.6,278.8L469.6,278.8z M443.9,264.6
			c-3.5,1.9-6.1,3.8-7.8,5.9s-2.4,4.7-2.4,7.5c0,4.2,1.4,7.5,4.5,9.9c3.1,2.4,7.1,3.5,12,3.5c5.4,0,9.6-1.4,13.4-4.5L443.9,264.6
			L443.9,264.6z M447.7,253.4c3.5-1.9,6.1-3.8,7.5-5.4c1.4-1.6,2.1-3.8,2.1-6.3c0-2.6-0.7-4.7-2.1-6.1s-3.3-2.1-5.9-2.1
			c-2.6,0-4.5,0.7-5.9,1.9c-1.4,1.2-2.1,3.1-2.1,5.4c0,1.6,0.5,3.5,1.4,5.4S445.4,250.8,447.7,253.4L447.7,253.4z"/>
		<path class="st1" d="M0,227.5h64.9v12.7H14.1v26.1h43.3V279H14.1v29.2h52v12.7H0.2C0,320.8,0,227.5,0,227.5z M81.8,227.5h17.6
			l44.9,75v-75H158v93.6h-17.6l-44.9-75v75H81.8V227.5z M221.5,271.9h40.7v48.9h-10.1l-1.2-15.3c-1.4,2.8-3.1,5.2-5.4,7.5
			c-2.4,2.1-4.9,4-7.8,5.6c-3.1,1.6-6.1,2.8-9.6,3.5c-3.5,0.9-7.3,1.4-11.1,1.4c-6.3,0-12.2-1.2-17.4-3.5c-5.2-2.4-9.6-5.6-13.4-9.9
			c-3.8-4.2-6.6-9.4-8.7-15.3c-2.1-5.9-3.1-12.5-3.1-20c0-7.5,1.2-14.3,3.3-20.7c2.1-6.1,5.4-11.5,9.4-16s8.9-7.8,14.6-10.1
			c5.6-2.4,12-3.5,19-3.5c5.4,0,10.3,0.7,15,2.1c4.7,1.4,8.7,3.5,12,6.3c3.5,2.8,6.3,6.1,8.7,9.9c2.4,3.8,3.8,8.2,4.7,12.9h-14.3
			c-1.6-5.6-4.7-10.1-9.4-13.4c-4.7-3.3-10.3-4.7-16.9-4.7c-4.7,0-8.9,0.7-12.7,2.4c-3.8,1.6-7.1,4-9.9,6.8
			c-2.8,3.1-4.9,6.6-6.3,10.8c-1.4,4.2-2.1,8.9-2.1,13.9v4c0,5.4,0.7,10.1,2.1,14.3c1.4,4.2,3.5,7.8,6.1,10.6s5.9,5.2,9.6,6.8
			c3.8,1.6,8,2.4,12.7,2.4c4.5,0,8.5-0.7,12.2-1.9c3.8-1.4,7.1-3.1,9.9-5.4c2.8-2.4,4.9-5.2,6.6-8.2c1.6-3.1,2.4-6.6,2.4-10.3h-29.6
			V271.9L221.5,271.9z M280.3,227.5h64.9v12.7h-50.8v26.1h43.3V279h-43.3v29.2h52v12.7h-66.1V227.5L280.3,227.5z M362.3,227.5h14.1
			v80.9h44.7v12.7h-58.8V227.5L362.3,227.5z M492.1,227.5h15.3l26.3,77.8l26.3-77.8h14.3L542,321.1h-17.2L492.1,227.5L492.1,227.5z
			 M623.6,323.7c-6.8,0-12.9-1.2-18.6-3.5c-5.6-2.4-10.3-5.9-14.3-10.1c-4-4.5-7.1-9.6-9.4-15.5c-2.1-6.1-3.3-12.7-3.3-20
			c0-7.3,1.2-14.1,3.3-20c2.4-6.1,5.4-11.3,9.4-15.5c4-4.2,8.7-7.8,14.3-10.1s11.8-3.5,18.6-3.5c6.8,0,12.9,1.2,18.6,3.5
			s10.3,5.9,14.3,10.1c4,4.5,7.1,9.6,9.4,15.5c2.4,6.1,3.3,12.7,3.3,20c0,7.3-1.2,13.9-3.3,20s-5.4,11.3-9.4,15.5
			c-4,4.5-8.9,7.8-14.3,10.1C636.5,322.5,630.4,323.7,623.6,323.7z M623.6,310.3c4.7,0,8.9-0.7,12.7-2.4c3.8-1.6,7.1-4,9.6-6.8
			c2.6-3.1,4.7-6.6,6.1-10.8c1.4-4.2,2.4-8.7,2.4-13.9v-4.2c0-5.2-0.7-9.6-2.4-13.9c-1.4-4.2-3.5-7.8-6.3-10.8
			c-2.8-3.1-5.9-5.2-9.6-6.8c-3.8-1.6-8-2.4-12.5-2.4c-4.5,0-8.7,0.7-12.5,2.4c-3.8,1.6-7.1,4-9.6,6.8c-2.6,3.1-4.7,6.6-6.3,10.8
			c-1.4,4.2-2.4,8.7-2.4,13.9v4.2c0,5.2,0.7,9.6,2.4,13.9c1.4,4.2,3.5,7.8,6.1,10.8s5.9,5.2,9.6,6.8
			C614.7,309.6,619.1,310.3,623.6,310.3L623.6,310.3z M603.1,206.1h13.6v13.4h-13.6V206.1z M630.6,206.1h13.6v13.4h-13.6V206.1z
			 M685.2,227.5h14.1v80.9H744v12.7h-58.8V227.5L685.2,227.5z M757.9,227.5H772v46.1l45.1-46.1h17.6l-37.9,37.9l39.3,55.7H819
			L787.5,275L772,290.5v30.3h-14.1V227.5z M848.1,227.5H913v12.7h-50.8v26.1h43.3V279h-43.3v29.2h52v12.7h-65.8L848.1,227.5
			L848.1,227.5z M930.2,227.5h43.3c4.5,0,8.5,0.7,12,1.9c3.5,1.2,6.6,2.8,8.9,5.2c2.6,2.1,4.5,4.9,5.9,8c1.4,3.1,2.1,6.6,2.1,10.3
			c0,5.4-1.4,10.1-4.2,14.1c-2.8,4-6.8,6.8-12,8.7c3.3,0.9,5.6,2.4,7.3,4.7c1.6,2.1,3.1,5.4,4,9.9l6.1,31h-14.3l-5.6-28.9
			c-0.2-1.9-0.9-3.5-1.4-4.7c-0.7-1.2-1.4-2.1-2.6-2.8c-0.9-0.7-2.4-1.2-4-1.4s-3.5-0.5-5.9-0.5h-25.6v38.3H930L930.2,227.5
			L930.2,227.5z M970.4,270.8c5.4,0,9.6-1.4,12.9-4.2s4.9-6.6,4.9-11.3c0-4.7-1.6-8.5-4.7-11.3c-3.3-2.8-7.5-4.2-12.9-4.2h-26.1v31
			L970.4,270.8L970.4,270.8z M1027.3,291.9c1.2,12.9,9.9,19.3,25.9,19.3c14.3,0,21.6-5.2,21.6-15.5c0-3.8-0.9-6.6-3.1-8.7
			c-2.1-2.1-5.4-3.8-10.3-5.2l-23.3-6.6c-7.3-2.1-12.7-4.9-16.2-8.9c-3.5-3.8-5.2-8.9-5.2-15c0-8.5,3.1-15,8.9-19.8
			c5.9-4.7,14.3-7.1,25.4-7.1c11.5,0,20.5,2.6,26.3,8c5.9,5.4,9.2,13.2,9.6,23.5h-13.9c-0.5-6.8-2.6-11.5-6.1-14.6
			c-3.5-2.8-8.9-4.5-16.5-4.5c-12.9,0-19.5,4.5-19.5,13.2c0,3.1,0.9,5.6,2.8,7.5s4.9,3.5,9.4,4.7l23.3,6.6c8,2.4,13.9,5.4,17.4,9.2
			c3.5,3.8,5.2,8.9,5.2,15.5c0,9.4-3.3,16.7-9.6,21.6c-6.3,5.2-15.3,7.8-27,7.8s-21.4-2.8-28.2-8.2c-6.8-5.4-10.3-13.4-10.8-23.7
			L1027.3,291.9L1027.3,291.9z"/>
	</g>
	<g>
		<path class="st1" d="M1099.3,230.3c-6.8,0-12.2-5.4-12.2-12.2c0-6.8,5.6-12.2,12.2-12.2c6.6,0,12.2,5.6,12.2,12.2
			S1106.1,230.3,1099.3,230.3L1099.3,230.3z M1099.3,207.3c-5.9,0-10.8,4.7-10.8,10.8c0,6.1,4.7,10.8,10.8,10.8
			c6.1,0,10.8-4.7,10.8-10.8C1110.1,212,1105.4,207.3,1099.3,207.3z"/>
		<path class="st1" d="M1095,211.5h5.2c1.2,0,2.1,0.2,2.8,0.9c0.7,0.7,1.2,1.4,1.2,2.6c0,0.7-0.2,1.4-0.5,1.9
			c-0.5,0.5-0.9,0.9-1.6,0.9v0.2c0.5,0,0.7,0.2,0.9,0.7c0.2,0.5,0.5,0.7,0.5,1.2l0.9,4.2h-1.9l-0.7-4c0-0.5-0.2-0.9-0.5-1.2
			c-0.2-0.2-0.7-0.2-1.4-0.2h-3.1v5.4h-1.9L1095,211.5L1095,211.5z M1099.7,217.4c0.9,0,1.4-0.2,1.9-0.5c0.5-0.5,0.7-0.9,0.7-1.6
			c0-1.4-0.9-2.1-2.6-2.1h-3.1v4.2H1099.7L1099.7,217.4z"/>
	</g>
</g>
</svg>
